<?xml version="1.0" encoding="UTF-8" standalone="no"?>
<svg width="125px" height="115px" viewBox="0 0 125 115" version="1.1" xmlns="http://www.w3.org/2000/svg" xmlns:xlink="http://www.w3.org/1999/xlink">
    <!-- Generator: Sketch 3.8.1 (29687) - http://www.bohemiancoding.com/sketch -->
    <title>Logo</title>
    <desc>Created with Sketch.</desc>
    <defs></defs>
    <g id="Symbols" stroke="none" stroke-width="1" fill="none" fill-rule="evenodd">
        <g id="Header" transform="translate(0.000000, -14.000000)" fill="#2c2c2c">
            <g id="Logo">
                <g transform="translate(0.000000, 14.000000)">
                    <path d="M44.1636398,56.0375013 L44.1636398,44.3506037 C44.8938284,42.03482 46.9183456,39.9926531 47.7187857,40.420376 C47.7187857,40.420376 48.5852194,40.7841501 48.6799523,41.6091939 C48.8012956,42.6669692 48.6799523,56.2838612 48.6799523,56.2838612 L52.8056246,54.2364526 L52.8215908,51.5893934 L52.8215908,39.6016222 C52.8215908,39.5271901 52.8098823,39.4454195 52.8003025,39.3646973 C53.6944111,37.4556697 55.3069997,35.9722681 55.9988694,36.3423323 C55.9988694,36.3423323 56.8663675,36.7061063 56.9611005,37.5311502 C57.0813794,38.5889255 56.9611005,45.9052924 56.9611005,45.9052924 C56.9589716,46.1673774 56.9611005,46.4598644 56.9994194,46.7135627 C57.1228915,48.1896259 57.6582923,51.2853747 59.9446555,50.6941108 C60.1671182,50.6364521 60.4055472,50.5473432 60.6631356,50.4152523 C63.4817063,48.9612043 64.8750255,46.3927706 65.2188315,44.8684838 C68.0203716,47.5973136 72.6303526,45.5593401 73.9342609,40.7768117 C74.270616,41.2810634 74.80921,41.7507198 75.5766532,41.9928864 C76.8635308,42.3954491 79.2957189,42.1501375 81.0860648,38.8048836 C81.2787239,40.2065146 82.3069487,41.3659789 84.1249694,41.7601549 C87.4054963,42.4709296 92.7105403,40.4287627 93.1586589,34.5968457 C93.3555757,32.0409921 90.5029437,29.8562509 87.8919339,27.8298091 C89.9153867,24.850426 92.2049432,21.8731396 93.8941697,19.7554922 C93.877139,26.8391276 93.8505286,33.6701129 93.8505286,33.6701129 L97.9900383,31.5692389 L97.9900383,20.6423881 C98.6914877,18.8067443 101.500479,15.5275359 102.296661,15.9521137 C102.296661,15.9521137 103.166288,15.9447753 103.261021,16.7708674 C103.324886,17.3338262 103.318499,21.4443684 103.301469,25.1722665 C103.393008,25.099931 103.556928,24.9961453 103.760232,24.8797796 L103.301469,25.1722665 C103.301469,25.1722665 103.203543,26.560269 103.635695,28.4797801 C104.141292,30.7263733 106.487263,30.7200833 107.582546,30.5177536 C109.918936,30.0868858 110.9759,28.5416322 111.926423,26.8087257 C112.857786,25.1125111 109.377149,28.8320224 108.199906,27.7868272 C107.589997,27.2448352 107.399466,23.6605598 107.399466,23.6605598 L107.399466,22.5482708 L107.399466,14.7632958 C107.399466,13.9738955 106.816167,12.7903194 105.424977,12.3531615 C104.150872,11.9537438 100.001783,12.9549088 97.9900383,18.1756434 L97.9900383,14.5200808 C99.8804392,11.4966674 102.786292,6.27488447 102.27218,3.45589744 C101.519638,-0.668273253 95.9027206,-0.0193506145 94.9234589,1.09293843 C93.9441972,2.20522748 93.8611728,4.37634021 93.8611728,4.37634021 C93.8409489,4.75688774 93.8579795,5.08816327 93.8739458,5.2894446 C93.8760746,5.31145975 93.877139,5.33032987 93.8792678,5.3492 C93.9058782,7.44483223 93.908007,12.1466384 93.8984273,17.1293998 C92.1357562,19.3026092 89.4193693,23.2192085 86.9371537,27.0791975 C85.7599108,26.1430296 84.7284927,25.2362153 84.1898988,24.3356909 C82.5581507,21.6215379 82.9040855,19.3225277 84.6976247,19.0604426 C85.8024874,18.8979499 86.7008536,18.0645193 86.7008536,18.0645193 C86.7008536,18.0645193 85.5693805,17.7909025 84.6891094,17.8527546 C81.1765401,18.1001629 78.85718,21.735807 80.0482603,25.0768675 C80.6656209,26.8087257 82.7955152,28.6223544 84.837063,30.423403 C83.2915326,32.9509514 82.0259432,35.1996414 81.4266776,36.5740155 C81.4234844,36.5865956 81.4192267,36.597079 81.4160335,36.6075624 C81.4213555,36.3779758 81.4288064,36.209193 81.4362573,36.1861296 C81.4362573,36.1861296 79.732129,40.1111156 78.3271013,39.5062233 C78.3271013,39.5062233 77.6639708,39.0103583 77.6639708,37.9452446 L77.6639708,27.3486209 L73.5233968,29.4411082 L73.5233968,39.114144 C71.9076149,42.3702889 67.4040753,45.4597477 67.1102968,37.6779178 C66.7909723,29.2261984 71.7298576,27.6012709 73.0252506,27.1284695 C74.321708,26.6546197 77.5075018,25.6345846 77.5075018,25.6345846 C77.5075018,25.6345846 74.4015391,25.2812939 72.8730392,25.6199078 C67.2752811,26.8548527 62.8324132,30.4810617 63.0005908,38.1779761 C63.0623268,40.9623679 63.7084267,42.9332477 64.6600136,44.2164162 C63.8819263,45.2878199 61.6423973,48.1026136 61.1016745,45.8329569 L61.1016745,35.5235785 C61.1016745,34.7341783 60.5173107,33.5506021 59.125056,33.1134442 C57.8605311,32.7182199 53.4581109,34.0621921 51.9328044,37.8100087 C51.6464767,37.5531653 51.2909621,37.3309172 50.8439079,37.1914879 C49.697533,36.8319072 45.9667587,37.9075043 44.1466092,40.9089026 C44.1412871,39.9853148 44.135965,39.2273647 44.135965,39.2273647 L40.0230657,41.2391297 L40.0230657,60.6302801 L44.1636398,58.4927142 L44.1636398,56.0375013 L44.1636398,56.0375013 Z M97.9900383,4.66148877 C97.9900383,4.45182071 98.0230352,1.08979341 99.6313661,1.64855878 C100.632981,1.99660776 100.532926,6.33673655 97.9900383,11.2943378 L97.9900383,4.67302051 L97.9900383,4.66148877 L97.9900383,4.66148877 Z M83.310692,36.9451279 C83.4575813,35.5172885 84.4070394,33.4698799 85.7333004,31.22119 C87.2820241,32.6249176 88.6317022,34.0118718 89.0191493,35.3380223 C90.1814904,39.323812 82.7454877,42.4436727 83.310692,36.9451279 L83.310692,36.9451279 Z M81.6981034,61.2571875 C80.8689242,62.3506065 80.0035548,63.5457144 80.0035548,63.5457144 C80.0035548,63.5457144 81.3213005,63.0467044 82.4506448,62.3705249 C84.2942114,61.2687193 91.4875275,56.1895106 91.2331323,64.8729132 C90.9478691,74.641348 86.2388975,74.8363393 84.4400363,72.6966768 L84.4400363,63.6809503 L80.2983978,65.7797275 L80.2983978,76.6457746 C79.7161628,77.755967 78.5697879,79.6031426 77.5724311,79.1743714 C77.5724311,79.1743714 76.9114295,78.6795548 76.9114295,77.6123444 L76.9114295,67.0167691 L72.7708554,69.1071596 L72.7708554,78.7812438 C71.1550735,82.0373887 66.6504696,85.1289442 66.3577555,77.3439693 C66.0394954,68.8943465 70.9773162,67.2683708 72.2727092,66.7955693 C73.570231,66.3227678 76.7538961,65.3027327 76.7538961,65.3027327 C76.7538961,65.3027327 73.6489977,64.9504904 72.1204979,65.2880559 C66.5227398,66.5230008 62.0788074,70.1492099 62.2480494,77.8461243 C62.4832851,88.5381469 71.2955763,87.3629574 73.182784,80.4439115 C73.5180747,80.9502598 74.0545398,81.418868 74.8241118,81.6610346 C76.1035385,82.0615006 78.5123095,81.822479 80.2983978,78.5380288 L80.2983978,101.122424 L84.4400363,99.1159004 L84.4400363,74.7419887 C87.6141216,77.8157224 95.447151,74.3939397 95.3758352,63.7606242 C95.3130348,54.8203782 86.3293728,55.1726205 81.6981034,61.2571875 L81.6981034,61.2571875 Z M124.576994,46.4430909 C121.142127,50.170989 111.966871,54.1662138 104.694788,58.0786198 C104.002918,58.4518289 103.332337,58.86173 102.683044,59.3009846 C101.377007,58.2243391 100.209343,57.1990623 99.6217864,56.2178158 C97.9900383,53.5036628 98.3391664,51.2046525 100.130577,50.9425675 C101.235439,50.7800747 102.133806,49.9466442 102.133806,49.9466442 C102.133806,49.9466442 101.001268,49.6730274 100.12419,49.7348794 C96.6094921,49.9822877 94.2890676,53.6189802 95.4801479,56.9589924 C96.0379013,58.5210194 97.8239896,60.1490919 99.6686206,61.7750676 C97.7292566,63.7302223 96.373192,66.0156041 96.1070883,68.4561403 C95.8399201,70.922885 96.8287616,73.0510158 99.5568571,73.6422797 C102.837384,74.3551511 108.143492,72.682 108.591611,66.8511313 C108.725727,65.1161281 107.453751,63.4870073 105.806037,61.9511888 C109.782691,59.8052362 114.637488,57.7599243 118.191569,55.2963247 C122.206542,52.5108845 124.472682,47.811175 124.909092,46.6726775 C124.972957,46.501798 124.632344,46.3822872 124.576994,46.4430909 L124.576994,46.4430909 Z M104.452101,67.2211954 C105.613378,71.2059369 98.1773753,74.3268459 98.7425797,68.8262044 C98.9235302,67.0681378 100.273208,65.5428026 102.246634,64.1233499 C103.312113,65.1779802 104.158323,66.2179338 104.452101,67.2211954 L104.452101,67.2211954 Z M20.4825365,56.049033 C20.4846653,56.049033 20.4867941,56.0469363 20.488923,56.045888 C20.5144689,56.0668548 20.5400149,56.0888699 20.5655608,56.1098367 C25.3415906,60.1207867 33.1746201,64.3120511 37.4258933,67.762139 C38.8117615,66.65614 40.3658073,65.5794945 42.0890951,64.5720395 C37.6675155,60.3849684 29.7578482,56.3897436 25.5055105,53.4701159 C28.2548943,51.8567202 31.3385043,49.57029 32.4944589,46.8309768 C33.9686736,43.3400037 34.0474403,35.2143181 27.2873411,35.2143181 C19.1317939,35.2143181 14.2078105,43.1544475 16.6857684,51.3094866 C16.7655995,51.5705233 16.8752343,51.8336567 17.0082861,52.0988868 L17.0593781,52.1554972 C10.9847621,55.2501977 4.76645005,58.9330171 2.79621802,62.0140892 C0.102183833,66.2284172 0.0255459583,71.2730307 0.0255459583,71.2730307 C0.649293106,69.5799611 5.204989,64.1621385 9.5541884,61.4448405 C10.7144007,60.7183406 14.714472,58.5975482 20.2962639,55.8886369 C20.3569355,55.944199 20.4165427,55.9987127 20.4825365,56.049033 L20.4825365,56.049033 Z M27.2873411,37.8100087 C30.2783471,37.4976033 30.8637753,41.7643482 27.7482328,45.491198 C26.3581069,47.151769 24.5007028,48.4391308 22.7987033,49.360622 C22.4836365,49.5073896 22.1621832,49.6583506 21.8396655,49.8124566 C18.9976776,45.1599224 19.7342528,38.5994089 27.2873411,37.8100087 L27.2873411,37.8100087 Z M67.7478814,60.177397 L74.8571087,56.6843272 C74.8571087,56.6843272 81.6001772,53.3694752 83.8248044,52.2771046 C97.5887539,45.5121648 102.0263,33.5831006 100.832026,34.4773349 C100.832026,34.4773349 93.3289653,41.8062818 81.496929,47.6203771 C69.4807489,53.5256779 62.7355515,56.8405299 62.7355515,56.8405299 L55.6273886,60.3335997 C55.6273886,60.3335997 48.88432,63.6484517 46.6596928,64.7418707 C32.8968078,71.5068105 28.4581975,83.4358747 29.6524711,82.5405921 C29.6524711,82.5416404 37.1576607,75.2126935 48.9875682,69.3975499 C50.6150587,68.5976662 52.1424941,67.8460063 53.5730678,67.1436183 L53.5730678,104.85137 L53.5730678,114.720446 C53.5730678,114.937452 58.8429861,111.859525 58.8429861,111.708564 L58.8429861,64.5552661 C64.6227591,61.7132156 67.7478814,60.177397 67.7478814,60.177397 L67.7478814,60.177397 Z M41.1630541,75.8804862 C40.9842324,79.8243424 38.4679555,83.5669172 33.0585988,86.6385542 C24.7412606,91.3634239 20.0418687,84.4674415 19.4553761,82.0866607 C17.9556154,75.9790302 19.4606981,70.0464725 25.342655,68.4257384 C27.2628596,67.8952782 30.3560493,70.8190993 31.1117839,74.4285349 C32.0346317,73.2082668 33.1490741,71.9020348 34.4763995,70.5811261 C33.7494041,67.7946376 30.7403031,65.2356389 26.1579969,65.2429773 C18.9040091,65.2597508 13.7309526,72.8969098 13.2168402,80.014092 C12.7005989,87.1312742 19.6895473,92.6497375 26.707235,91.3026202 C42.9768171,88.1733244 46.60115,79.4857285 46.0774578,72.9629552 C44.3147867,73.9316216 42.6734589,74.9139165 41.1630541,75.8804862 L41.1630541,75.8804862 Z" id="Fill-1"></path>
                </g>
            </g>
        </g>
    </g>
</svg>