<?xml version="1.0" encoding="UTF-8"?> <svg xmlns="http://www.w3.org/2000/svg" xmlns:xlink="http://www.w3.org/1999/xlink" width="1476px" height="317px" viewBox="0 0 1476 317" version="1.1"><title>Group</title><g id="Page-1" stroke="none" stroke-width="1" fill="none" fill-rule="evenodd"><g id="logo" transform="translate(-433.000000, -368.000000)" fill="#000000" fill-rule="nonzero"><g id="Group" transform="translate(433.000000, 368.000000)"><path d="M194.3,24 L194.3,37.8 C194.3,53.4 190.4,60.1 180.9,60.1 L68.7,60.1 L68.7,124.6 L169,124.6 C178.3,124.6 182.4,131.3 182.4,146.9 L182.4,160.7 C182.4,176.3 178.5,183 169,183 L68.7,183 L68.7,255.2 L181.4,255.2 C190.7,255.2 194.8,261.9 194.8,277.5 L194.8,291.3 C194.8,306.9 190.9,313.6 181.4,313.6 L17.9,313.6 C5.5,313.6 0,308.2 0,295.7 L0,19.7 C0,7.3 5.4,1.79889789 17.9,1.79889789 L180.9,1.79889789 C190.2,1.7 194.3,8.4 194.3,24 Z" id="Path"></path><path d="M557.3,15.1 L557.3,300.3 C557.3,309.6 549.3,314.6 530.6,314.6 L517.7,314.6 C499,314.6 491,309.7 491,300.3 L491,115.9 L489.2,115.4 L424.7,230.7 C420.8,236.1 415.4,239.2 406.8,239.2 L393.9,239.2 C385.4,239.2 380.1,236.1 376,230.7 L311.5,115.4 L309.7,115.9 L309.7,300.3 C309.7,309.6 301.7,314.6 283,314.6 L270,314.6 C251.3,314.6 243.3,309.7 243.3,300.3 L243.3,15.1 C243.3,5.8 251.3,0.8 270,0.8 L293.6,0.8 C306.5,0.8 316.7,3.9 321.6,12.8 L396.5,146 L400.1,152.2 L404,144.7 L479.3,12.8 C484.2,4 494.4,0.8 507.3,0.8 L530.4,0.8 C549.3,0.9 557.3,5.8 557.3,15.1 Z" id="Path"></path><path d="M794.3,15.1 L794.3,255.2 L893.6,255.2 C902.9,255.2 907,261.9 907,277.5 L907,291.3 C907,306.9 903.1,313.6 893.6,313.6 L743.4,313.6 C731,313.6 725.5,308.2 725.5,295.7 L725.5,15.1 C725.5,5.8 733.5,0.8 752.2,0.8 L767.3,0.8 C786.3,0.9 794.3,5.8 794.3,15.1 Z" id="Path"></path><path d="M1123.1,151.4 L1123.1,235.1 C1123.1,281 1128.5,290.3 1128.5,299.6 C1128.5,310.2 1089.7,313.9 1078.5,313.9 C1064.2,313.9 1063.4,295.2 1060.6,283.1 C1057.5,288.8 1036,317 995.1,317 C946.9,317 929.1,288.5 929.1,252 C929.1,215.5 943.8,169.1 1057,169.1 L1057,154.4 C1057,137.5 1046.7,129 1022.3,129 C989.7,129 970.7,143.3 965.3,143.3 C956,143.3 942.2,117.1 942.2,107.6 C942.2,92.5 977.9,76.8 1027.2,76.8 C1097.7,77 1123.1,108.2 1123.1,151.4 Z M994.8,245.4 C994.8,256.5 1002.3,265.1 1017.1,265.1 C1034,265.1 1050,253.1 1057.2,237.1 L1057.2,212.5 C1014.8,212.5 994.8,224.1 994.8,245.4 Z" id="Shape"></path><path d="M1475.9,91.3 C1475.9,93.1 1475.4,95.2 1475.1,98 L1422.5,305.2 C1420.7,311.4 1410.5,314.5 1397.9,314.5 L1376.1,314.5 C1361.8,314.5 1353.3,311.4 1351.5,305.2 L1324.3,199.2 C1322.5,193 1321.2,186.3 1319.4,180 L1314.5,199.7 L1289.3,305.2 C1288,311.4 1277.3,314.5 1264.7,314.5 L1243,314.5 C1228.3,314.5 1220.2,311.4 1218.4,305.2 L1162.2,98 C1161.4,95.4 1161.4,93.1 1161.4,91.3 C1161.4,84.1 1169.9,79.7 1189.1,79.7 C1213.2,79.7 1222.5,82.3 1224.3,89 L1254.6,206.6 L1259.5,226.3 C1261.3,219.1 1263.1,212.5 1264.9,205.3 L1293.4,89 C1294.7,82.8 1303.7,79.7 1318,79.7 L1328.6,79.7 C1341,79.7 1351.7,82.8 1353.2,89 L1381.7,207.9 C1383,214.1 1384.8,219.9 1386.1,226.2 L1391.5,206.5 L1422.3,88.9 C1424.1,82.7 1432.6,79.6 1448.5,79.6 C1467.5,79.7 1475.9,84.3 1475.9,91.3 Z" id="Path"></path></g></g></g></svg> 